<?xml version="1.0" encoding="UTF-8" standalone="no"?>
<!DOCTYPE svg PUBLIC "-//W3C//DTD SVG 1.1//EN" "http://www.w3.org/Graphics/SVG/1.1/DTD/svg11.dtd">
<svg width="100%" height="100%" viewBox="0 0 400 400" version="1.1" xmlns="http://www.w3.org/2000/svg" xmlns:xlink="http://www.w3.org/1999/xlink" xml:space="preserve" xmlns:serif="http://www.serif.com/" style="fill-rule:evenodd;clip-rule:evenodd;stroke-linejoin:round;stroke-miterlimit:2;">
    <g transform="matrix(1.31962,0,0,1.31962,16.0876,-1.35605)">
        <path d="M139.127,186.463C140.471,185.117 141.634,184.052 142.684,182.884C149.194,175.646 154.047,167.373 157.408,158.284C166.218,134.463 167.612,110.14 161.681,85.46C158.357,71.63 152.394,59.056 142.885,48.324C141.757,47.051 140.499,45.896 139.331,44.717C138.701,45.069 138.301,45.202 138.022,45.464C137.247,46.197 136.496,46.96 135.78,47.751C129.804,54.349 125.117,61.787 121.781,70.019C111.725,94.84 110.32,120.285 116.765,146.183C120.199,159.985 126.238,172.521 135.837,183.178C136.799,184.245 137.871,185.215 139.127,186.463ZM115.957,30.744C114.63,30.307 113.895,30.006 113.131,29.823C93.858,25.2 75.961,28.043 59.931,40.038C49.614,47.759 42.46,58.038 37.59,69.848C27.815,93.558 26.236,118.008 31.695,142.959C34.615,156.308 39.78,168.733 48.418,179.432C65.051,200.032 86.657,206.465 112.177,201.232C112.983,201.066 113.713,200.531 114.663,200.08C114.114,199.374 113.83,198.927 113.468,198.555C101.052,185.776 93.14,170.48 88.683,153.382C82.887,131.145 82.805,108.699 87.286,86.245C91.348,65.889 99.89,47.732 114.56,32.737C114.995,32.292 115.289,31.709 115.957,30.744ZM161.292,200.16C165.393,201.006 168.701,201.928 172.071,202.344C192.681,204.889 210.74,199.607 225.45,184.496C233.13,176.607 238.495,167.235 242.203,156.95C249.61,136.4 251.326,115.273 247.742,93.769C245.25,78.808 240.148,64.777 230.734,52.709C214.445,31.824 193.084,24.27 167.179,29.314C165.963,29.55 164.803,30.073 163.634,30.456C163.886,31.148 163.92,31.437 164.074,31.629C164.577,32.252 165.105,32.858 165.656,33.44C176.43,44.823 183.808,58.182 188.346,73.099C195.46,96.484 195.976,120.19 191.042,144.032C186.806,164.505 177.945,182.656 163.246,197.754C162.79,198.222 162.415,198.77 161.292,200.16ZM0.007,116.155C-0.049,98.543 2.631,80.642 9.915,63.692C23.047,33.132 45.806,14.027 78.585,7.558C98.594,3.61 118.238,5.242 137.094,13.442C139.409,14.448 141.286,14.241 143.544,13.351C169.704,3.04 195.994,2.443 221.928,13.71C245.647,24.015 261.015,42.448 270.26,66.265C277.1,83.887 279.129,102.254 278.27,120.994C277.183,144.708 271.142,166.918 257.043,186.368C240.954,208.563 219.099,221.164 191.877,224.365C174.002,226.467 156.68,224.354 140.133,217.054C138.219,216.21 136.662,216.357 134.832,217.163C119.705,223.817 103.784,226.225 87.436,224.826C51.585,221.758 25.885,203.756 10.72,171.112C2.757,153.972 -0.173,135.715 0.007,116.155Z" style="fill:rgb(238,46,35);fill-rule:nonzero;"/>
    </g>
    <g transform="matrix(0.311778,0,0,0.311778,-89.9789,308.084)">
        <path d="M330.651,34.244L330.651,202.891C334.696,203.266 338.527,203.743 342.372,203.957C357.486,204.797 372.563,204.726 387.391,201.126C417.083,193.917 436.5,175.902 444.794,146.277C448.956,131.41 449.647,116.221 448.18,100.987C447.532,94.266 446.078,87.487 443.977,81.067C436.156,57.171 419.304,42.66 395.447,35.851C379.807,31.388 363.817,31.085 347.756,32.234C342.076,32.641 336.433,33.55 330.651,34.244ZM303.56,14.104C312.687,13.114 321.689,11.752 330.74,11.248C343.404,10.544 356.105,10.151 368.787,10.222C385.17,10.314 401.292,12.633 416.773,18.254C446.797,29.155 466.003,50.25 473.751,81.088C480.244,106.931 479.078,132.845 470.349,158.09C459.368,189.849 437.145,209.989 405.063,219.468C392.061,223.31 378.769,225.384 365.238,226.035C345.443,226.988 325.708,226.03 305.997,224.246C305.214,224.175 304.442,223.989 303.748,223.872C302.797,220.877 302.554,19.445 303.56,14.104Z" style="fill:rgb(25,26,26);fill-rule:nonzero;"/>
    </g>
    <g transform="matrix(0.311778,0,0,0.311778,-89.9789,308.084)">
        <path d="M1010.14,17.376C1007.85,25.12 1005.7,32.368 1003.6,39.444C997.285,37.512 991.402,35.307 985.331,33.93C967.98,29.995 950.586,29.891 933.376,34.799C909.365,41.646 892.588,56.754 884.014,80.173C874.931,104.982 874.621,130.297 883.317,155.236C892.61,181.885 911.967,197.572 939.539,202.709C960.881,206.686 981.856,204.705 1002.14,196.634C1002.62,196.442 1003.14,196.358 1004.14,196.093C1006.01,203.232 1007.85,210.25 1009.72,217.389C1004.55,220.186 999.321,221.742 994.006,222.973C970.523,228.414 946.845,229.975 923.313,224.034C884.189,214.157 860.255,188.917 851.458,149.721C846.247,126.502 846.807,103.175 854.346,80.44C866.806,42.869 892.911,19.934 931.258,11.219C954.058,6.037 976.932,7.092 999.473,13.461C1003.02,14.463 1006.42,15.995 1010.14,17.376Z" style="fill:rgb(25,26,26);fill-rule:nonzero;"/>
    </g>
    <g transform="matrix(0.311778,0,0,0.311778,-89.9789,308.084)">
        <path d="M796.683,146.617C796.492,144.423 796.315,140.816 795.842,137.248C794.311,125.692 790.683,114.922 783.685,105.43C767.183,83.047 734.946,85.111 719.588,101.879C714.545,107.385 710.823,113.636 708.297,120.62C703.516,133.839 702.386,147.436 704.552,161.268C706.274,172.257 710.089,182.487 717.325,191.106C728.544,204.471 742.831,209.738 759.924,205.818C772.042,203.039 780.707,195.262 787.046,184.796C793.886,173.505 796.349,161.046 796.683,146.617ZM824.846,146.629C825.003,158.248 823.565,168.944 819.807,179.207C809.917,206.221 790.336,221.716 762.301,226.744C750.311,228.894 738.321,228.314 726.616,224.774C707.314,218.936 692.661,207.134 684.259,188.803C671.398,160.742 671.908,132.347 686.246,105.053C697.842,82.979 717.404,71.653 741.962,68.759C755.481,67.166 768.689,68.617 781.253,73.907C803.335,83.205 816.244,100.323 822.173,123.119C824.235,131.048 825.065,139.14 824.846,146.629Z" style="fill:rgb(25,26,26);fill-rule:nonzero;"/>
    </g>
    <g transform="matrix(0.311778,0,0,0.311778,-89.9789,308.084)">
        <path d="M1452.62,132.529C1456.82,133.451 1530.68,133.329 1533.88,132.41C1533.73,120.71 1531.24,109.731 1523.71,100.324C1520.91,96.833 1517.47,94.082 1513.47,92.103C1500.1,85.486 1479.49,85.858 1466.21,101.072C1460.38,107.751 1456.63,115.501 1454.4,124.009C1453.66,126.814 1453.2,129.693 1452.62,132.529ZM1559.19,153.105L1452.75,153.105C1451.94,156.251 1452.53,159.179 1452.96,161.989C1453.59,166.064 1454.4,170.175 1455.73,174.066C1461.86,191.972 1474.77,202.176 1493.14,205.092C1510.05,207.776 1526.71,205.863 1542.85,199.992C1543.98,199.582 1545.11,199.179 1546.24,198.788C1546.35,198.751 1546.5,198.823 1547.22,198.94C1548.7,205.103 1550.23,211.494 1551.8,218.015C1546.16,220.809 1540.56,222.497 1534.85,223.801C1518.15,227.606 1501.29,229.167 1484.34,226.094C1454.61,220.704 1435.77,203.153 1428.56,173.87C1423.09,151.663 1424.94,129.726 1434.5,108.839C1443.7,88.746 1458.83,75.294 1480.67,70.095C1491.63,67.485 1502.68,67.427 1513.66,69.931C1530.12,73.685 1542.36,83.202 1550.41,97.955C1559.42,114.456 1561.88,132.236 1560.05,150.756C1560.02,151.151 1559.91,151.545 1559.79,151.926C1559.71,152.177 1559.56,152.402 1559.19,153.105Z" style="fill:rgb(25,26,26);fill-rule:nonzero;"/>
    </g>
    <g transform="matrix(0.311778,0,0,0.311778,-89.9789,308.084)">
        <path d="M511.541,71.875L539.053,71.875C539.097,73.467 539.178,75.014 539.178,76.561C539.186,103.292 539.153,130.023 539.202,156.754C539.218,164.924 539.939,173.034 542.26,180.925C542.636,182.205 543.055,183.476 543.535,184.72C549.409,199.909 560.319,205.09 573.969,204.895C592.133,204.636 608.078,191.261 611.71,173.571C612.402,170.199 612.573,166.672 612.581,163.216C612.647,134.614 612.619,106.012 612.619,77.41L612.619,71.982L640.091,71.982C640.895,122.587 639.172,173.199 641.301,223.8C638.633,224.632 624.755,224.895 617.093,224.166C616.529,216.26 615.958,208.252 615.317,199.25C613.873,201.207 613.017,202.332 612.199,203.482C596.402,225.686 570.46,231.896 547.912,225.616C534.516,221.885 525.114,213.171 519.112,200.723C514.697,191.564 512.708,181.777 511.955,171.72C511.627,167.328 511.563,162.908 511.558,158.501C511.524,131.502 511.541,104.504 511.541,77.506L511.541,71.875Z" style="fill:rgb(25,26,26);fill-rule:nonzero;"/>
    </g>
    <g transform="matrix(0.311778,0,0,0.311778,-89.9789,308.084)">
        <path d="M1323.97,97.724C1317.61,94.591 1311.44,92.574 1304.93,91.59C1295.6,90.178 1286.28,89.993 1277.06,92.278C1261.72,96.083 1250.35,105.097 1243.84,119.485C1235.49,137.937 1235.06,156.915 1243.15,175.487C1251.18,193.904 1266,203.555 1285.91,205.24C1297.95,206.259 1309.62,204.319 1320.8,199.656C1322.01,199.152 1323.26,198.753 1324.89,198.16C1326.48,205.134 1328,211.835 1329.61,218.92C1326.6,220.091 1323.95,221.303 1321.19,222.17C1302.88,227.911 1284.23,229.744 1265.45,225.31C1235.39,218.215 1217.81,198.704 1211.5,168.87C1208.28,153.602 1208.69,138.223 1213.35,123.271C1222.4,94.255 1242.27,76.764 1271.81,70.532C1289.96,66.704 1307.97,68.027 1325.49,74.373C1326.98,74.91 1328.4,75.613 1330.21,76.39C1328.14,83.45 1326.13,90.322 1323.97,97.724Z" style="fill:rgb(25,26,26);fill-rule:nonzero;"/>
    </g>
    <g transform="matrix(0.311778,0,0,0.311778,-89.9789,308.084)">
        <path d="M1362.55,0.388L1389.81,0.388L1389.81,223.736C1387.11,224.615 1369.19,224.901 1362.55,224.132L1362.55,0.388Z" style="fill:rgb(25,26,26);fill-rule:nonzero;"/>
    </g>
    <g transform="matrix(0.311778,0,0,0.311778,-89.9789,308.084)">
        <path d="M1144.71,224.253L1117.49,224.253C1116.79,173.48 1118.37,122.889 1116.25,71.924C1124.18,71.451 1131.98,71.651 1140.2,71.816C1141.05,81.807 1140.43,91.632 1141.43,101.34C1141.72,101.394 1142.02,101.449 1142.31,101.504C1142.84,100.366 1143.42,99.246 1143.9,98.086C1147.13,90.302 1151.73,83.475 1158.28,78.119C1167.85,70.291 1178.71,66.76 1191.11,68.811C1191.5,68.875 1191.86,69.047 1192.51,69.255L1192.51,94.978C1191.42,94.905 1190.41,94.883 1189.42,94.762C1174.21,92.932 1162.1,98.12 1153.51,110.889C1147.09,120.419 1145.01,131.252 1144.75,142.505C1144.59,149.452 1144.72,156.405 1144.71,163.355L1144.71,224.253Z" style="fill:rgb(25,26,26);fill-rule:nonzero;"/>
    </g>
    <g transform="matrix(0.311778,0,0,0.311778,-89.9789,308.084)">
        <path d="M1043.74,71.915L1070.81,71.915L1070.81,224.187L1044.09,224.187C1043.25,221.242 1042.88,79.79 1043.74,71.915Z" style="fill:rgb(25,26,26);fill-rule:nonzero;"/>
    </g>
    <g transform="matrix(0.311778,0,0,0.311778,-89.9789,308.084)">
        <path d="M1074.24,28.814C1074.29,38.797 1067.31,45.326 1056.89,45.63C1048.51,45.874 1040.01,39.625 1039.84,28.813C1039.69,18.844 1047.17,11.279 1057.15,11.208C1067.2,11.138 1074.19,18.342 1074.24,28.814Z" style="fill:rgb(25,26,26);fill-rule:nonzero;"/>
    </g>
</svg>
