<?xml version="1.0" encoding="UTF-8"?><svg xmlns="http://www.w3.org/2000/svg" xmlns:xlink="http://www.w3.org/1999/xlink" xmlns:serif="http://www.serif.com/" width="100%" height="100%" viewBox="0 0 800 800" version="1.2" xml:space="preserve" baseProfile="tiny-ps" fill-rule="evenodd" stroke-linejoin="round" stroke-miterlimit="2"><title>PhishProtection Logo</title><g transform="matrix(6.57344,0,0,6.57344,11.673,44.0484)"><path d="M10.287,18.79C11.203,18.79 12.152,18.757 13.138,18.689C14.122,18.621 15.03,18.417 15.862,18.078C16.694,17.738 17.372,17.23 17.899,16.55C18.426,15.871 18.689,14.92 18.689,13.698C18.689,12.578 18.451,11.687 17.976,11.024C17.5,10.363 16.889,9.853 16.142,9.497C15.395,9.14 14.564,8.911 13.647,8.809C12.73,8.708 11.847,8.656 10.999,8.656L6.416,8.656L6.416,18.79L10.287,18.79ZM0,3.157L12.119,3.157C13.851,3.157 15.523,3.327 17.136,3.666C18.748,4.006 20.166,4.574 21.388,5.372C22.61,6.17 23.586,7.239 24.316,8.58C25.046,9.922 25.411,11.593 25.411,13.596C25.411,15.871 25.02,17.704 24.24,19.096C23.458,20.489 22.406,21.566 21.082,22.33C19.758,23.093 18.222,23.611 16.473,23.883C14.724,24.155 12.9,24.291 10.999,24.291L6.416,24.291L6.416,39.211L0,39.211L0,3.157Z" fill="rgb(100,179,69)" fill-rule="nonzero"></path></g><g transform="matrix(6.57344,0,0,6.57344,11.673,44.0484)"><path d="M36.665,18.179L36.767,18.179C37.242,17.161 38.082,16.236 39.288,15.404C40.492,14.572 42.046,14.156 43.947,14.156C45.577,14.156 46.96,14.429 48.097,14.971C49.234,15.515 50.16,16.228 50.873,17.11C51.586,17.993 52.095,19.012 52.4,20.166C52.706,21.32 52.859,22.526 52.859,23.781L52.859,39.211L46.748,39.211L46.748,26.836C46.748,26.158 46.714,25.403 46.646,24.57C46.578,23.739 46.4,22.958 46.112,22.228C45.823,21.498 45.373,20.887 44.762,20.395C44.151,19.902 43.319,19.656 42.266,19.656C41.248,19.656 40.39,19.826 39.695,20.166C38.999,20.505 38.422,20.963 37.963,21.54C37.505,22.118 37.175,22.78 36.97,23.527C36.767,24.274 36.665,25.054 36.665,25.869L36.665,39.211L30.554,39.211L30.554,0.712L36.665,0.712L36.665,18.179Z" fill="rgb(100,179,69)" fill-rule="nonzero"></path></g><g transform="matrix(6.57344,0,0,6.57344,11.673,44.0484)"><path d="M59.885,14.767L65.997,14.767L65.997,39.211L59.885,39.211L59.885,14.767ZM59.02,6.467C59.02,5.483 59.385,4.625 60.115,3.895C60.844,3.166 61.77,2.8 62.891,2.8C64.01,2.8 64.953,3.148 65.717,3.844C66.481,4.54 66.863,5.414 66.863,6.467C66.863,7.52 66.481,8.394 65.717,9.089C64.953,9.786 64.01,10.134 62.891,10.134C61.77,10.134 60.844,9.769 60.115,9.039C59.385,8.309 59.02,7.452 59.02,6.467Z" fill="rgb(100,179,69)" fill-rule="nonzero"></path></g><g transform="matrix(6.57344,0,0,6.57344,11.673,44.0484)"><path d="M86.061,21.54C84.872,19.878 83.277,19.045 81.274,19.045C80.459,19.045 79.661,19.249 78.881,19.656C78.099,20.064 77.71,20.726 77.71,21.642C77.71,22.39 78.032,22.933 78.677,23.272C79.322,23.611 80.136,23.9 81.121,24.138C82.106,24.375 83.166,24.622 84.304,24.876C85.441,25.131 86.502,25.522 87.487,26.047C88.471,26.574 89.286,27.295 89.931,28.212C90.575,29.128 90.898,30.384 90.898,31.98C90.898,33.44 90.585,34.671 89.957,35.672C89.328,36.674 88.513,37.48 87.512,38.091C86.51,38.702 85.381,39.144 84.125,39.415C82.87,39.687 81.613,39.823 80.358,39.823C78.456,39.823 76.708,39.551 75.112,39.008C73.516,38.465 72.09,37.48 70.834,36.054L74.909,32.235C75.689,33.118 76.529,33.838 77.429,34.399C78.328,34.959 79.423,35.239 80.714,35.239C81.154,35.239 81.613,35.188 82.089,35.086C82.564,34.985 83.006,34.815 83.413,34.577C83.82,34.34 84.151,34.043 84.406,33.686C84.66,33.33 84.788,32.914 84.788,32.438C84.788,31.59 84.465,30.961 83.82,30.554C83.175,30.147 82.36,29.816 81.376,29.561C80.391,29.306 79.33,29.07 78.193,28.848C77.055,28.628 75.994,28.271 75.01,27.779C74.025,27.287 73.21,26.599 72.566,25.716C71.92,24.834 71.598,23.611 71.598,22.05C71.598,20.692 71.878,19.512 72.438,18.51C72.999,17.509 73.737,16.686 74.654,16.041C75.57,15.396 76.622,14.92 77.811,14.615C78.999,14.309 80.205,14.156 81.427,14.156C83.056,14.156 84.668,14.436 86.265,14.996C87.86,15.557 89.15,16.517 90.135,17.874L86.061,21.54Z" fill="rgb(100,179,69)" fill-rule="nonzero"></path></g><g transform="matrix(6.57344,0,0,6.57344,11.673,44.0484)"><path d="M101.746,18.179L101.847,18.179C102.323,17.161 103.163,16.236 104.368,15.404C105.572,14.572 107.126,14.156 109.027,14.156C110.657,14.156 112.04,14.429 113.178,14.971C114.315,15.515 115.241,16.228 115.953,17.11C116.666,17.993 117.176,19.012 117.481,20.166C117.787,21.32 117.94,22.526 117.94,23.781L117.94,39.211L111.828,39.211L111.828,26.836C111.828,26.158 111.794,25.403 111.727,24.57C111.658,23.739 111.481,22.958 111.193,22.228C110.904,21.498 110.454,20.887 109.843,20.395C109.232,19.902 108.399,19.656 107.347,19.656C106.329,19.656 105.471,19.826 104.776,20.166C104.079,20.505 103.502,20.963 103.044,21.54C102.586,22.118 102.255,22.78 102.051,23.527C101.847,24.274 101.746,25.054 101.746,25.869L101.746,39.211L95.634,39.211L95.634,0.712L101.746,0.712L101.746,18.179Z" fill="rgb(100,179,69)" fill-rule="nonzero"></path></g><g transform="matrix(11.284,0,0,11.284,-2287.17,69.7179)"><path d="M257.347,42.827C254.607,43.011 250.166,45.466 247.177,47.312C244.967,44.61 240.279,42.745 234.852,42.745C227.299,42.745 221.176,50.812 221.176,50.812C221.176,50.812 227.299,58.879 234.852,58.879C240.268,58.879 244.948,57.022 247.163,54.328C251.3,56.762 256.728,59.149 258.084,58.879C259.803,58.536 255.824,52.489 255.502,49.818C255.181,47.147 261.778,42.529 257.347,42.827Z" fill="rgb(100,179,69)" fill-rule="nonzero"></path></g><g transform="matrix(11.284,0,0,11.284,-2287.17,69.7179)"><path d="M226.98,49.292C226.98,49.716 226.636,50.06 226.212,50.06C225.788,50.06 225.444,49.716 225.444,49.292C225.444,48.868 225.788,48.524 226.212,48.524C226.636,48.524 226.98,48.868 226.98,49.292Z" fill="white" fill-rule="nonzero"></path></g><g transform="matrix(3.26813,0,0,3.26813,-395.821,335.004)"><path d="M130.16,19.045L137.393,19.045C139.532,19.045 141.271,18.561 142.612,17.594C143.954,16.626 144.625,15.124 144.625,13.087C144.625,11.05 143.954,9.548 142.612,8.58C141.271,7.613 139.532,7.129 137.393,7.129L130.16,7.129L130.16,19.045ZM125.884,3.157L136.578,3.157C138.241,3.157 139.829,3.318 141.34,3.641C142.85,3.963 144.191,4.506 145.363,5.27C146.534,6.034 147.467,7.052 148.163,8.326C148.859,9.598 149.208,11.169 149.208,13.036C149.208,15.006 148.833,16.635 148.087,17.925C147.34,19.215 146.381,20.234 145.21,20.98C144.039,21.727 142.757,22.253 141.365,22.559C139.973,22.864 138.649,23.017 137.393,23.017L130.16,23.017L130.16,39.211L125.884,39.211L125.884,3.157Z" fill="rgb(103,103,103)" fill-rule="nonzero"></path></g><g transform="matrix(3.26813,0,0,3.26813,-395.821,335.004)"><path d="M155.369,21.032C155.369,19.945 155.335,18.926 155.267,17.976C155.199,17.025 155.165,16.159 155.165,15.378L158.933,15.378C158.933,16.024 158.95,16.669 158.984,17.313C159.018,17.959 159.035,18.621 159.035,19.3L159.137,19.3C159.408,18.723 159.79,18.163 160.283,17.619C160.774,17.077 161.361,16.593 162.04,16.168C162.719,15.744 163.482,15.404 164.332,15.149C165.18,14.894 166.096,14.767 167.082,14.767C167.352,14.767 167.624,14.785 167.896,14.818C168.168,14.853 168.439,14.92 168.711,15.022L168.456,19.045C167.776,18.842 167.064,18.739 166.317,18.739C163.873,18.739 162.098,19.529 160.996,21.108C159.892,22.686 159.341,24.851 159.341,27.6L159.341,39.211L155.369,39.211L155.369,21.032Z" fill="rgb(103,103,103)" fill-rule="nonzero"></path></g><g transform="matrix(3.26813,0,0,3.26813,-395.821,335.004)"><path d="M175.28,27.295C175.28,28.552 175.475,29.714 175.866,30.783C176.256,31.853 176.825,32.787 177.572,33.585C178.318,34.382 179.21,35.01 180.246,35.468C181.281,35.927 182.443,36.156 183.734,36.156C185.024,36.156 186.186,35.927 187.222,35.468C188.257,35.01 189.149,34.382 189.896,33.585C190.642,32.787 191.211,31.853 191.602,30.783C191.992,29.714 192.187,28.552 192.187,27.295C192.187,26.04 191.992,24.876 191.602,23.807C191.211,22.737 190.642,21.803 189.896,21.006C189.149,20.208 188.257,19.58 187.222,19.121C186.186,18.663 185.024,18.434 183.734,18.434C182.443,18.434 181.281,18.663 180.246,19.121C179.21,19.58 178.318,20.208 177.572,21.006C176.825,21.803 176.256,22.737 175.866,23.807C175.475,24.876 175.28,26.04 175.28,27.295ZM171.002,27.295C171.002,25.428 171.325,23.73 171.97,22.203C172.614,20.674 173.498,19.36 174.618,18.255C175.738,17.153 177.08,16.295 178.641,15.684C180.202,15.073 181.9,14.767 183.734,14.767C185.567,14.767 187.264,15.073 188.826,15.684C190.387,16.295 191.729,17.153 192.849,18.255C193.97,19.36 194.852,20.674 195.497,22.203C196.141,23.73 196.465,25.428 196.465,27.295C196.465,29.163 196.141,30.86 195.497,32.387C194.852,33.915 193.97,35.232 192.849,36.334C191.729,37.438 190.387,38.295 188.826,38.906C187.264,39.517 185.567,39.823 183.734,39.823C181.9,39.823 180.202,39.517 178.641,38.906C177.08,38.295 175.738,37.438 174.618,36.334C173.498,35.232 172.614,33.915 171.97,32.387C171.325,30.86 171.002,29.163 171.002,27.295Z" fill="rgb(103,103,103)" fill-rule="nonzero"></path></g><g transform="matrix(3.26813,0,0,3.26813,-395.821,335.004)"><path d="M215.781,38.906C215.781,38.906 215.929,47.222 212.897,48.323C212.897,48.323 214.535,48.845 215.497,47.648C214.85,50.916 213.395,53.986 210.286,55.217C207.145,56.461 203.061,54.807 201.696,51.708C200.944,50.001 201.254,47.968 201.901,46.284C202.66,44.308 203.968,42.643 205.249,40.985C207.248,38.401 208.745,36.113 208.687,32.82C208.658,31.24 208.643,29.722 208.635,28.389L208.635,18.739L215.663,18.739L215.663,15.378L208.635,15.378L208.635,8.605L204.663,8.605L204.663,15.378L199.469,15.378L199.469,18.739L204.663,18.739L204.663,31.827C204.663,32.242 204.685,32.627 204.702,33.016C204.612,34.885 204.251,36.686 203.101,38.312C201.994,39.876 200.659,41.271 199.608,42.875C195.499,49.148 198.356,58.458 206.459,58.979C210.966,59.268 215.018,56.616 216.227,52.215C217.353,48.127 216.68,42.975 215.781,38.906Z" fill="rgb(103,103,103)" fill-rule="nonzero"></path></g><g transform="matrix(3.26813,0,0,3.26813,-395.821,335.004)"><path d="M238.426,25.156C238.358,23.119 237.695,21.49 236.44,20.267C235.183,19.045 233.452,18.434 231.245,18.434C229.038,18.434 227.256,19.045 225.899,20.267C224.54,21.49 223.725,23.119 223.454,25.156L238.426,25.156ZM241.838,34.883C240.412,36.716 238.85,37.998 237.153,38.728C235.455,39.458 233.487,39.823 231.245,39.823C229.378,39.823 227.697,39.492 226.204,38.829C224.71,38.168 223.446,37.276 222.41,36.156C221.374,35.036 220.577,33.712 220.016,32.184C219.457,30.656 219.176,29.026 219.176,27.295C219.176,25.462 219.482,23.773 220.093,22.228C220.705,20.684 221.552,19.36 222.64,18.255C223.725,17.153 225.015,16.295 226.509,15.684C228.003,15.073 229.632,14.767 231.398,14.767C233.062,14.767 234.589,15.047 235.982,15.607C237.373,16.168 238.57,16.983 239.572,18.052C240.572,19.121 241.345,20.429 241.889,21.974C242.432,23.519 242.703,25.275 242.703,27.244L242.703,28.518L223.454,28.518C223.522,29.536 223.768,30.512 224.193,31.445C224.617,32.379 225.168,33.194 225.848,33.89C226.526,34.586 227.325,35.138 228.241,35.544C229.158,35.952 230.159,36.156 231.245,36.156C232.977,36.156 234.436,35.85 235.625,35.239C236.813,34.628 237.883,33.729 238.833,32.54L241.838,34.883Z" fill="rgb(103,103,103)" fill-rule="nonzero"></path></g><g transform="matrix(3.26813,0,0,3.26813,-395.821,335.004)"><path d="M291.743,15.378L295.715,15.378L295.715,39.211L291.743,39.211L291.743,15.378ZM290.826,6.059C290.826,5.278 291.106,4.6 291.666,4.022C292.227,3.445 292.914,3.157 293.729,3.157C294.544,3.157 295.232,3.445 295.791,4.022C296.352,4.6 296.632,5.278 296.632,6.059C296.632,6.909 296.36,7.604 295.817,8.147C295.273,8.691 294.578,8.962 293.729,8.962C292.88,8.962 292.184,8.691 291.642,8.147C291.098,7.604 290.826,6.909 290.826,6.059Z" fill="rgb(103,103,103)" fill-rule="nonzero"></path></g><g transform="matrix(3.26813,0,0,3.26813,-395.821,335.004)"><path d="M306.511,27.295C306.511,28.552 306.706,29.714 307.096,30.783C307.486,31.853 308.055,32.787 308.802,33.585C309.549,34.382 310.44,35.01 311.476,35.468C312.511,35.927 313.674,36.156 314.964,36.156C316.254,36.156 317.417,35.927 318.453,35.468C319.488,35.01 320.379,34.382 321.126,33.585C321.872,32.787 322.442,31.853 322.832,30.783C323.222,29.714 323.418,28.552 323.418,27.295C323.418,26.04 323.222,24.876 322.832,23.807C322.442,22.737 321.872,21.803 321.126,21.006C320.379,20.208 319.488,19.58 318.453,19.121C317.417,18.663 316.254,18.434 314.964,18.434C313.674,18.434 312.511,18.663 311.476,19.121C310.44,19.58 309.549,20.208 308.802,21.006C308.055,21.803 307.486,22.737 307.096,23.807C306.706,24.876 306.511,26.04 306.511,27.295ZM302.233,27.295C302.233,25.428 302.555,23.73 303.2,22.203C303.845,20.674 304.729,19.36 305.848,18.255C306.969,17.153 308.31,16.295 309.872,15.684C311.433,15.073 313.131,14.767 314.964,14.767C316.798,14.767 318.495,15.073 320.057,15.684C321.618,16.295 322.96,17.153 324.079,18.255C325.2,19.36 326.082,20.674 326.728,22.203C327.372,23.73 327.695,25.428 327.695,27.295C327.695,29.163 327.372,30.86 326.728,32.387C326.082,33.915 325.2,35.232 324.079,36.334C322.96,37.438 321.618,38.295 320.057,38.906C318.495,39.517 316.798,39.823 314.964,39.823C313.131,39.823 311.433,39.517 309.872,38.906C308.31,38.295 306.969,37.438 305.848,36.334C304.729,35.232 303.845,33.915 303.2,32.387C302.555,30.86 302.233,29.163 302.233,27.295Z" fill="rgb(103,103,103)" fill-rule="nonzero"></path></g><g transform="matrix(3.26813,0,0,3.26813,-395.821,335.004)"><path d="M333.858,21.032C333.858,19.945 333.824,18.926 333.756,17.976C333.688,17.025 333.654,16.159 333.654,15.378L337.422,15.378C337.422,16.024 337.439,16.669 337.474,17.313C337.507,17.959 337.524,18.621 337.524,19.3L337.626,19.3C337.897,18.723 338.28,18.163 338.772,17.619C339.263,17.077 339.85,16.593 340.529,16.168C341.208,15.744 341.971,15.404 342.821,15.149C343.669,14.894 344.585,14.767 345.571,14.767C347.131,14.767 348.481,15.006 349.619,15.48C350.756,15.956 351.698,16.618 352.445,17.466C353.192,18.315 353.744,19.343 354.1,20.548C354.457,21.753 354.635,23.068 354.635,24.494L354.635,39.211L350.663,39.211L350.663,24.901C350.663,22.898 350.221,21.32 349.339,20.166C348.455,19.012 347.081,18.434 345.214,18.434C343.923,18.434 342.811,18.655 341.878,19.096C340.945,19.537 340.181,20.166 339.586,20.98C338.992,21.795 338.55,22.762 338.262,23.883C337.974,25.004 337.83,26.243 337.83,27.6L337.83,39.211L333.858,39.211L333.858,21.032Z" fill="rgb(103,103,103)" fill-rule="nonzero"></path></g><g transform="matrix(3.26813,0,0,3.26813,-395.821,335.004)"><path d="M361.481,33.406C362.33,33.406 363.051,33.703 363.645,34.297C364.24,34.891 364.537,35.613 364.537,36.462C364.537,37.31 364.222,38.032 363.595,38.626C362.966,39.219 362.263,39.517 361.481,39.517C360.7,39.517 359.996,39.219 359.368,38.626C358.739,38.032 358.426,37.31 358.426,36.462C358.426,35.613 358.723,34.891 359.317,34.297C359.911,33.703 360.632,33.406 361.481,33.406Z" fill="rgb(103,103,103)" fill-rule="nonzero"></path></g><g transform="matrix(3.26813,0,0,3.26813,-395.821,335.004)"><path d="M275.448,28.506C276.874,27.08 278.208,25.563 279.42,23.964L279.42,18.739L282.819,18.739C283.432,17.634 283.989,16.512 284.491,15.378L279.42,15.378L279.42,8.605L275.448,8.605L275.448,15.378L270.254,15.378L270.254,18.739L275.448,18.739L275.448,28.506Z" fill="rgb(103,103,103)" fill-rule="nonzero"></path></g><g transform="matrix(3.26813,0,0,3.26813,-395.821,335.004)"><path d="M264.721,38.912C264.778,38.89 264.829,38.859 264.885,38.836C266.231,37.936 267.505,36.961 268.71,35.915L265.844,33.197C264.416,35.169 262.392,36.155 259.772,36.155C258.549,36.155 257.441,35.927 256.456,35.468C255.47,35.007 254.627,34.37 253.932,33.554C253.234,32.738 252.688,31.793 252.298,30.722C251.908,29.651 251.71,28.503 251.71,27.278C251.71,26.053 251.881,24.905 252.221,23.833C252.561,22.762 253.064,21.82 253.726,21.002C254.39,20.186 255.231,19.548 256.252,19.09C257.272,18.631 258.445,18.4 259.772,18.4C260.963,18.4 262.051,18.631 263.037,19.09C264.024,19.548 264.943,20.287 265.792,21.309L268.956,18.502C267.765,17.211 266.38,16.258 264.798,15.645C263.216,15.033 261.54,14.728 259.772,14.728C257.936,14.728 256.26,15.041 254.748,15.67C253.234,16.301 251.932,17.175 250.845,18.299C249.755,19.422 248.914,20.746 248.318,22.278C247.722,23.808 247.425,25.476 247.425,27.278C247.425,29.115 247.722,30.799 248.318,32.329C248.914,33.861 249.746,35.185 250.818,36.309C251.889,37.432 253.191,38.3 254.721,38.912C256.252,39.522 257.936,39.83 259.772,39.83C261.506,39.83 263.158,39.522 264.721,38.912Z" fill="rgb(103,103,103)" fill-rule="nonzero"></path></g><g transform="matrix(3.26813,0,0,3.26813,-395.821,335.004)"><path d="M284.774,35.951C284.161,36.089 283.566,36.155 282.988,36.155C282.104,36.155 281.423,36.012 280.948,35.723C280.47,35.435 280.113,35.042 279.876,34.548C279.638,34.056 279.501,33.477 279.467,32.815C279.434,32.15 279.418,31.428 279.418,30.645L279.418,29.918C278.234,31.596 276.972,33.207 275.62,34.732C275.638,34.872 275.646,35.025 275.666,35.16C275.82,36.165 276.133,37.006 276.611,37.687C277.086,38.368 277.751,38.893 278.6,39.269C279.451,39.643 280.591,39.83 282.019,39.83C282.766,39.83 283.557,39.761 284.392,39.626C285.224,39.489 285.98,39.269 286.661,38.962L286.51,35.339C285.964,35.613 285.386,35.817 284.774,35.951Z" fill="rgb(103,103,103)" fill-rule="nonzero"></path></g></svg>